<svg width="118" height="118" viewBox="0 0 118 118" fill="none" xmlns="http://www.w3.org/2000/svg">
<path d="M106.495 50.3959L62.2448 11.0625C61.3475 10.2743 60.194 9.8396 58.9998 9.8396C57.8055 9.8396 56.652 10.2743 55.7548 11.0625L11.5048 50.3959C10.7527 51.0612 10.2223 51.9408 9.98501 52.9164C9.74768 53.8921 9.81477 54.917 10.1773 55.8534C10.5338 56.7774 11.1611 57.5722 11.977 58.1337C12.7929 58.6951 13.7593 58.9971 14.7498 59H19.6664V103.25C19.6664 104.554 20.1844 105.805 21.1065 106.727C22.0285 107.649 23.2791 108.167 24.5831 108.167H93.4164C94.7204 108.167 95.971 107.649 96.893 106.727C97.8151 105.805 98.3331 104.554 98.3331 103.25V59H103.25C104.24 58.9971 105.207 58.6951 106.023 58.1337C106.838 57.5722 107.466 56.7774 107.822 55.8534C108.185 54.917 108.252 53.8921 108.014 52.9164C107.777 51.9408 107.247 51.0612 106.495 50.3959ZM63.9164 98.3334H54.0831V83.5834C54.0831 82.2794 54.6011 81.0288 55.5231 80.1068C56.4452 79.1847 57.6958 78.6667 58.9998 78.6667C60.3037 78.6667 61.5543 79.1847 62.4764 80.1068C63.3984 81.0288 63.9164 82.2794 63.9164 83.5834V98.3334ZM88.4997 98.3334H73.7497V83.5834C73.7497 79.6714 72.1957 75.9197 69.4296 73.1536C66.6634 70.3874 62.9117 68.8334 58.9998 68.8334C55.0878 68.8334 51.3361 70.3874 48.5699 73.1536C45.8038 75.9197 44.2497 79.6714 44.2497 83.5834V98.3334H29.4998V59H88.4997V98.3334ZM27.6806 49.1667L58.9998 21.3384L90.3189 49.1667H27.6806Z" fill="#5F5149"/>
</svg>
