<svg width="410" height="463" viewBox="0 0 410 463" fill="none" xmlns="http://www.w3.org/2000/svg">
<path d="M377.65 96.355L46.7514 83.5729C28.5396 82.8694 13.2057 97.0627 12.5022 115.274L0.913734 415.271C0.210236 433.483 14.4035 448.816 32.6153 449.52L363.514 462.302C381.726 463.006 397.06 448.812 397.763 430.6L409.352 130.604C410.055 112.392 395.862 97.0585 377.65 96.355Z" fill="url(#paint0_linear_199_117)"/>
<path d="M351.657 115.653L71.1784 104.818C51.5869 104.062 35.0914 119.33 34.3346 138.922L24.5367 392.564C23.7799 412.156 39.0484 428.651 58.6399 429.408L339.119 440.243C358.71 441 375.206 425.731 375.963 406.139L385.761 152.497C386.517 132.905 371.249 116.41 351.657 115.653Z" stroke="white" stroke-width="5" stroke-miterlimit="1" stroke-linejoin="round" stroke-dasharray="10 20 30 40"/>
<path d="M240 0H190V124H240V0Z" fill="url(#paint1_linear_199_117)"/>
<path d="M116.624 195.707C117.956 195.707 118.622 196.337 118.622 197.597V207.695C119.342 207.227 120.134 206.795 120.998 206.399C121.898 206.003 123.032 205.805 124.4 205.805C125.66 205.805 126.848 206.057 127.964 206.561C129.08 207.029 130.052 207.857 130.88 209.045C131.744 210.197 132.41 211.727 132.878 213.635C133.382 215.543 133.634 217.919 133.634 220.763C133.634 223.355 133.4 225.569 132.932 227.405C132.5 229.205 131.78 230.699 130.772 231.887C129.764 233.039 128.45 233.885 126.83 234.425C125.246 234.929 123.32 235.181 121.052 235.181C118.676 235.181 116.606 234.965 114.842 234.533C113.078 234.137 111.836 233.759 111.116 233.399C110.72 233.219 110.36 232.949 110.036 232.589C109.748 232.229 109.604 231.653 109.604 230.861V195.707H116.624ZM118.622 228.323C119.306 228.431 119.99 228.485 120.674 228.485C121.358 228.485 121.934 228.413 122.402 228.269C122.906 228.125 123.302 227.783 123.59 227.243C123.914 226.703 124.148 225.929 124.292 224.921C124.436 223.877 124.508 222.455 124.508 220.655C124.508 219.035 124.436 217.703 124.292 216.659C124.184 215.615 123.986 214.787 123.698 214.175C123.41 213.563 123.032 213.149 122.564 212.933C122.132 212.681 121.574 212.555 120.89 212.555C120.062 212.555 119.306 212.735 118.622 213.095V228.323ZM153.296 206.453H160.316C161.648 206.453 162.314 207.083 162.314 208.343V234.479H157.13C156.302 234.479 155.726 234.353 155.402 234.101C155.114 233.813 154.826 233.219 154.538 232.319L154.214 231.347C152.954 232.715 151.712 233.687 150.488 234.263C149.3 234.839 147.896 235.127 146.276 235.127C141.164 235.127 138.608 231.959 138.608 225.623V206.453H145.628C146.96 206.453 147.626 207.083 147.626 208.343V224.705C147.626 225.641 147.806 226.343 148.166 226.811C148.526 227.243 149.192 227.459 150.164 227.459C150.704 227.459 151.262 227.369 151.838 227.189C152.414 227.009 152.9 226.739 153.296 226.379V206.453ZM184.454 234.155C183.374 234.479 182.384 234.713 181.484 234.857C180.62 235.001 179.666 235.073 178.622 235.073C177.182 235.073 175.886 234.929 174.734 234.641C173.618 234.353 172.646 233.849 171.818 233.129C171.026 232.373 170.414 231.383 169.982 230.159C169.55 228.899 169.334 227.315 169.334 225.407V213.419H168.254C166.922 213.419 166.256 212.789 166.256 211.529V206.453H169.658L170.09 199.649H176.354C177.686 199.649 178.352 200.279 178.352 201.539V206.453H182.456C183.788 206.453 184.454 207.083 184.454 208.343V213.419H178.352V225.245C178.352 227.153 179.198 228.107 180.89 228.107H182.456C183.788 228.107 184.454 228.737 184.454 229.997V234.155ZM225.5 234.479H218.48C217.148 234.479 216.482 233.849 216.482 232.589V213.419H209.516V234.479H202.496C201.164 234.479 200.498 233.849 200.498 232.589V213.419H199.418C198.086 213.419 197.42 212.789 197.42 211.529V206.453H200.498V204.995C200.498 203.087 200.678 201.503 201.038 200.243C201.434 198.947 201.974 197.921 202.658 197.165C203.378 196.409 204.224 195.887 205.196 195.599C206.204 195.275 207.32 195.113 208.544 195.113C209.264 195.113 209.948 195.167 210.596 195.275C211.244 195.383 211.874 195.581 212.486 195.869C213.422 196.337 213.89 197.183 213.89 198.407V202.133C213.494 202.097 213.134 202.079 212.81 202.079C212.522 202.079 212.234 202.079 211.946 202.079C210.758 202.079 210.056 202.367 209.84 202.943C209.624 203.483 209.516 204.275 209.516 205.319V206.453H223.502C224.834 206.453 225.5 207.083 225.5 208.343V234.479ZM221.018 203.699C219.182 203.699 217.886 203.393 217.13 202.781C216.374 202.133 215.996 201.071 215.996 199.595C215.996 198.119 216.374 197.075 217.13 196.463C217.886 195.815 219.182 195.491 221.018 195.491C222.854 195.491 224.15 195.815 224.906 196.463C225.662 197.075 226.04 198.119 226.04 199.595C226.04 201.071 225.662 202.133 224.906 202.781C224.15 203.393 222.854 203.699 221.018 203.699ZM245.631 206.291C247.035 206.291 247.737 206.921 247.737 208.181V214.391C247.485 214.355 247.251 214.337 247.035 214.337C246.819 214.337 246.567 214.337 246.279 214.337C245.127 214.337 243.975 214.427 242.823 214.607C241.707 214.787 240.789 215.183 240.069 215.795V234.479H233.049C231.717 234.479 231.051 233.849 231.051 232.589V206.453H236.235C237.027 206.453 237.585 206.597 237.909 206.885C238.233 207.137 238.539 207.713 238.827 208.613L239.259 210.071C240.015 208.883 240.951 207.965 242.067 207.317C243.183 206.633 244.371 206.291 245.631 206.291ZM251.495 227.675C253.007 227.783 254.465 227.873 255.869 227.945C257.273 228.017 258.497 228.053 259.541 228.053C261.161 228.053 262.259 227.927 262.835 227.675C263.411 227.387 263.699 226.829 263.699 226.001C263.699 225.641 263.645 225.353 263.537 225.137C263.429 224.921 263.231 224.723 262.943 224.543C262.655 224.363 262.259 224.201 261.755 224.057C261.287 223.913 260.657 223.751 259.865 223.571C258.353 223.211 257.057 222.833 255.977 222.437C254.897 222.005 253.997 221.483 253.277 220.871C252.557 220.259 252.017 219.485 251.657 218.549C251.333 217.577 251.171 216.353 251.171 214.877C251.171 213.005 251.423 211.493 251.927 210.341C252.431 209.153 253.133 208.217 254.033 207.533C254.969 206.849 256.067 206.381 257.327 206.129C258.587 205.877 259.973 205.751 261.485 205.751C263.609 205.751 265.301 205.913 266.561 206.237C267.857 206.525 268.811 206.795 269.423 207.047C270.071 207.335 270.521 207.659 270.773 208.019C271.025 208.343 271.151 208.883 271.151 209.639V213.257C268.775 213.113 267.011 213.023 265.859 212.987C264.743 212.915 263.897 212.879 263.321 212.879C262.097 212.879 261.161 212.987 260.513 213.203C259.901 213.383 259.595 213.851 259.595 214.607C259.595 215.327 259.883 215.831 260.459 216.119C261.071 216.407 262.007 216.695 263.267 216.983C264.779 217.379 266.093 217.775 267.209 218.171C268.361 218.567 269.297 219.089 270.017 219.737C270.737 220.349 271.277 221.141 271.637 222.113C271.997 223.049 272.177 224.255 272.177 225.731C272.177 227.567 271.907 229.097 271.367 230.321C270.863 231.545 270.143 232.517 269.207 233.237C268.271 233.957 267.155 234.461 265.859 234.749C264.563 235.037 263.141 235.181 261.593 235.181C259.757 235.181 258.065 235.037 256.517 234.749C255.005 234.461 253.889 234.173 253.169 233.885C252.521 233.597 252.071 233.255 251.819 232.859C251.603 232.427 251.495 231.905 251.495 231.293V227.675ZM292.824 234.155C291.744 234.479 290.754 234.713 289.854 234.857C288.99 235.001 288.036 235.073 286.992 235.073C285.552 235.073 284.256 234.929 283.104 234.641C281.988 234.353 281.016 233.849 280.188 233.129C279.396 232.373 278.784 231.383 278.352 230.159C277.92 228.899 277.704 227.315 277.704 225.407V213.419H276.624C275.292 213.419 274.626 212.789 274.626 211.529V206.453H278.028L278.46 199.649H284.724C286.056 199.649 286.722 200.279 286.722 201.539V206.453H290.826C292.158 206.453 292.824 207.083 292.824 208.343V213.419H286.722V225.245C286.722 227.153 287.568 228.107 289.26 228.107H290.826C292.158 228.107 292.824 228.737 292.824 229.997V234.155ZM307.491 229.889C307.491 230.285 307.455 230.699 307.383 231.131C307.347 231.563 307.239 232.067 307.059 232.643C306.915 233.183 306.663 233.831 306.303 234.587C305.979 235.343 305.529 236.261 304.953 237.341L302.739 241.391H298.905C298.005 241.391 297.555 241.049 297.555 240.365C297.555 240.257 297.555 240.113 297.555 239.933C297.591 239.789 297.663 239.609 297.771 239.393L300.417 234.047C299.121 233.615 298.257 233.057 297.825 232.373C297.429 231.689 297.231 230.933 297.231 230.105C297.231 228.413 297.627 227.189 298.419 226.433C299.211 225.677 300.525 225.299 302.361 225.299C304.233 225.299 305.547 225.695 306.303 226.487C307.095 227.243 307.491 228.377 307.491 229.889ZM88.7163 297.479C87.3843 297.479 86.7183 296.849 86.7183 295.589V279.227C86.7183 278.291 86.5383 277.607 86.1783 277.175C85.8183 276.707 85.1523 276.473 84.1803 276.473C83.6403 276.473 83.0823 276.563 82.5063 276.743C81.9303 276.923 81.4443 277.193 81.0483 277.553V297.479H74.0283C72.6963 297.479 72.0303 296.849 72.0303 295.589V258.707H79.0503C80.3823 258.707 81.0483 259.337 81.0483 260.597V271.991C82.9923 269.867 85.3143 268.805 88.0143 268.805C93.1623 268.805 95.7363 271.973 95.7363 278.309V297.479H88.7163ZM113.017 298.181C110.821 298.181 108.931 297.911 107.347 297.371C105.799 296.795 104.521 295.913 103.513 294.725C102.541 293.537 101.821 292.025 101.353 290.189C100.921 288.317 100.705 286.085 100.705 283.493C100.705 280.865 100.921 278.633 101.353 276.797C101.821 274.925 102.541 273.395 103.513 272.207C104.521 271.019 105.799 270.155 107.347 269.615C108.931 269.075 110.821 268.805 113.017 268.805C115.213 268.805 117.085 269.075 118.633 269.615C120.217 270.155 121.495 271.019 122.467 272.207C123.475 273.395 124.195 274.925 124.627 276.797C125.095 278.633 125.329 280.865 125.329 283.493C125.329 286.085 125.095 288.317 124.627 290.189C124.195 292.025 123.475 293.537 122.467 294.725C121.495 295.913 120.217 296.795 118.633 297.371C117.085 297.911 115.213 298.181 113.017 298.181ZM116.203 283.493C116.203 281.765 116.149 280.397 116.041 279.389C115.969 278.345 115.807 277.553 115.555 277.013C115.303 276.437 114.979 276.059 114.583 275.879C114.187 275.699 113.665 275.609 113.017 275.609C112.369 275.609 111.847 275.699 111.451 275.879C111.055 276.059 110.731 276.437 110.479 277.013C110.227 277.553 110.047 278.345 109.939 279.389C109.867 280.397 109.831 281.765 109.831 283.493C109.831 285.257 109.867 286.661 109.939 287.705C110.047 288.749 110.227 289.559 110.479 290.135C110.731 290.675 111.055 291.035 111.451 291.215C111.847 291.395 112.369 291.485 113.017 291.485C113.665 291.485 114.187 291.395 114.583 291.215C114.979 291.035 115.303 290.675 115.555 290.135C115.807 289.559 115.969 288.749 116.041 287.705C116.149 286.661 116.203 285.257 116.203 283.493ZM136.035 297.479C135.279 297.479 134.775 297.299 134.523 296.939C134.271 296.579 134.073 296.201 133.929 295.805C132.525 291.557 131.445 287.273 130.689 282.953C129.969 278.597 129.357 274.097 128.853 269.453H135.873C137.169 269.453 137.853 270.101 137.925 271.397C137.961 272.441 138.015 273.701 138.087 275.177C138.195 276.653 138.303 278.219 138.411 279.875C138.519 281.495 138.663 283.133 138.843 284.789C139.023 286.409 139.239 287.903 139.491 289.271L143.325 272.045H148.239C148.851 272.045 149.301 272.207 149.589 272.531C149.877 272.855 150.093 273.305 150.237 273.881L153.693 289.271C153.945 287.903 154.161 286.337 154.341 284.573C154.521 282.773 154.683 280.955 154.827 279.119C154.971 277.283 155.079 275.519 155.151 273.827C155.223 272.099 155.295 270.641 155.367 269.453H162.063C162.783 269.453 163.251 269.651 163.467 270.047C163.719 270.407 163.845 270.893 163.845 271.505C163.845 271.865 163.809 272.297 163.737 272.801C163.701 273.269 163.647 273.791 163.575 274.367C163.179 277.643 162.603 281.225 161.847 285.113C161.127 288.965 160.029 293.087 158.553 297.479H151.695C151.083 297.479 150.633 297.335 150.345 297.047C150.093 296.759 149.913 296.381 149.805 295.913L146.457 281.927L142.785 297.479H136.035ZM186.107 297.803C183.515 297.803 181.517 297.029 180.113 295.481C178.745 293.933 178.061 291.737 178.061 288.893C178.061 286.949 178.367 285.401 178.979 284.249C179.627 283.061 180.473 282.179 181.517 281.603C182.561 280.991 183.749 280.595 185.081 280.415C186.413 280.235 187.799 280.145 189.239 280.145H192.533V278.525C192.533 277.373 192.137 276.671 191.345 276.419C190.553 276.131 189.329 275.987 187.673 275.987C186.197 275.987 184.865 276.023 183.677 276.095C182.525 276.167 181.787 276.203 181.463 276.203C180.779 276.203 180.293 276.023 180.005 275.663C179.717 275.303 179.573 274.889 179.573 274.421V270.641C180.581 270.209 181.931 269.795 183.623 269.399C185.315 269.003 187.259 268.805 189.455 268.805C193.667 268.805 196.691 269.687 198.527 271.451C200.363 273.215 201.281 275.735 201.281 279.011V297.479H196.097C195.701 297.479 195.359 297.461 195.071 297.425C194.819 297.353 194.603 297.245 194.423 297.101C194.243 296.921 194.081 296.687 193.937 296.399C193.793 296.111 193.649 295.751 193.505 295.319L193.181 294.455C192.461 295.247 191.525 296.003 190.373 296.723C189.221 297.443 187.799 297.803 186.107 297.803ZM192.479 285.383H189.023C187.835 285.383 186.989 285.653 186.485 286.193C186.017 286.697 185.783 287.417 185.783 288.353C185.783 289.469 186.053 290.243 186.593 290.675C187.133 291.071 187.907 291.269 188.915 291.269C190.355 291.269 191.543 290.909 192.479 290.189V285.383ZM221.347 269.291C222.751 269.291 223.453 269.921 223.453 271.181V277.391C223.201 277.355 222.967 277.337 222.751 277.337C222.535 277.337 222.283 277.337 221.995 277.337C220.843 277.337 219.691 277.427 218.539 277.607C217.423 277.787 216.505 278.183 215.785 278.795V297.479H208.765C207.433 297.479 206.767 296.849 206.767 295.589V269.453H211.951C212.743 269.453 213.301 269.597 213.625 269.885C213.949 270.137 214.255 270.713 214.543 271.613L214.975 273.071C215.731 271.883 216.667 270.965 217.783 270.317C218.899 269.633 220.087 269.291 221.347 269.291ZM249.148 296.399C248.212 296.795 246.916 297.191 245.26 297.587C243.64 297.983 241.624 298.181 239.212 298.181C237.088 298.181 235.252 297.911 233.704 297.371C232.156 296.831 230.86 295.967 229.816 294.779C228.808 293.591 228.052 292.079 227.548 290.243C227.08 288.371 226.846 286.121 226.846 283.493C226.846 278.273 227.818 274.529 229.762 272.261C231.742 269.957 234.82 268.805 238.996 268.805C241.192 268.805 242.974 269.111 244.342 269.723C245.746 270.335 246.844 271.181 247.636 272.261C248.428 273.305 248.968 274.565 249.256 276.041C249.544 277.481 249.688 279.047 249.688 280.739C249.688 281.099 249.67 281.549 249.634 282.089C249.598 282.629 249.526 283.169 249.418 283.709C249.346 284.249 249.256 284.771 249.148 285.275C249.04 285.743 248.932 286.103 248.824 286.355H235.216C235.216 288.191 235.648 289.469 236.512 290.189C237.412 290.909 238.816 291.269 240.724 291.269C242.488 291.269 243.82 291.251 244.72 291.215C245.656 291.143 246.466 291.107 247.15 291.107C247.87 291.107 248.374 291.287 248.662 291.647C248.986 291.971 249.148 292.439 249.148 293.051V296.399ZM242.02 281.117C242.02 278.885 241.786 277.355 241.318 276.527C240.886 275.663 240.076 275.231 238.888 275.231C237.448 275.231 236.476 275.681 235.972 276.581C235.504 277.481 235.252 278.993 235.216 281.117H242.02ZM273.034 271.397C273.25 273.017 273.448 274.565 273.628 276.041C273.844 277.517 274.078 278.975 274.33 280.415C274.582 281.819 274.87 283.241 275.194 284.681C275.518 286.121 275.896 287.615 276.328 289.163C276.688 287.723 277.03 286.193 277.354 284.573C277.678 282.953 277.966 281.297 278.218 279.605C278.506 277.913 278.758 276.203 278.974 274.475C279.19 272.747 279.388 271.073 279.568 269.453H286.426C286.966 269.453 287.398 269.597 287.722 269.885C288.046 270.137 288.208 270.587 288.208 271.235C288.208 271.631 288.154 272.117 288.046 272.693C287.938 273.233 287.83 273.791 287.722 274.367C287.47 275.663 287.182 277.085 286.858 278.633C286.534 280.181 286.156 281.783 285.724 283.439C285.328 285.059 284.878 286.715 284.374 288.407C283.87 290.063 283.312 291.665 282.7 293.213C281.872 295.337 281.008 297.245 280.108 298.937C279.208 300.629 278.218 302.069 277.138 303.257C276.094 304.445 274.924 305.345 273.628 305.957C272.368 306.605 270.928 306.929 269.308 306.929C268.696 306.929 268.048 306.893 267.364 306.821C266.68 306.749 266.086 306.623 265.582 306.443C265.006 306.263 264.592 305.993 264.34 305.633C264.088 305.309 263.962 304.823 263.962 304.175V299.855C264.286 299.891 264.682 299.909 265.15 299.909C265.618 299.945 266.068 299.963 266.5 299.963C267.4 299.963 268.138 299.909 268.714 299.801C269.326 299.693 269.83 299.531 270.226 299.315C270.658 299.099 271 298.829 271.252 298.505C271.54 298.217 271.792 297.875 272.008 297.479L272.332 296.885C271.072 294.797 269.956 292.637 268.984 290.405C268.048 288.137 267.22 285.851 266.5 283.547C265.816 281.207 265.222 278.867 264.718 276.527C264.25 274.151 263.854 271.793 263.53 269.453H271.036C272.188 269.453 272.854 270.101 273.034 271.397ZM304.443 298.181C302.247 298.181 300.357 297.911 298.773 297.371C297.225 296.795 295.947 295.913 294.939 294.725C293.967 293.537 293.247 292.025 292.779 290.189C292.347 288.317 292.131 286.085 292.131 283.493C292.131 280.865 292.347 278.633 292.779 276.797C293.247 274.925 293.967 273.395 294.939 272.207C295.947 271.019 297.225 270.155 298.773 269.615C300.357 269.075 302.247 268.805 304.443 268.805C306.639 268.805 308.511 269.075 310.059 269.615C311.643 270.155 312.921 271.019 313.893 272.207C314.901 273.395 315.621 274.925 316.053 276.797C316.521 278.633 316.755 280.865 316.755 283.493C316.755 286.085 316.521 288.317 316.053 290.189C315.621 292.025 314.901 293.537 313.893 294.725C312.921 295.913 311.643 296.795 310.059 297.371C308.511 297.911 306.639 298.181 304.443 298.181ZM307.629 283.493C307.629 281.765 307.575 280.397 307.467 279.389C307.395 278.345 307.233 277.553 306.981 277.013C306.729 276.437 306.405 276.059 306.009 275.879C305.613 275.699 305.091 275.609 304.443 275.609C303.795 275.609 303.273 275.699 302.877 275.879C302.481 276.059 302.157 276.437 301.905 277.013C301.653 277.553 301.473 278.345 301.365 279.389C301.293 280.397 301.257 281.765 301.257 283.493C301.257 285.257 301.293 286.661 301.365 287.705C301.473 288.749 301.653 289.559 301.905 290.135C302.157 290.675 302.481 291.035 302.877 291.215C303.273 291.395 303.795 291.485 304.443 291.485C305.091 291.485 305.613 291.395 306.009 291.215C306.405 291.035 306.729 290.675 306.981 290.135C307.233 289.559 307.395 288.749 307.467 287.705C307.575 286.661 307.629 285.257 307.629 283.493ZM335.994 269.453H343.014C344.346 269.453 345.012 270.083 345.012 271.343V297.479H339.828C339 297.479 338.424 297.353 338.1 297.101C337.812 296.813 337.524 296.219 337.236 295.319L336.912 294.347C335.652 295.715 334.41 296.687 333.186 297.263C331.998 297.839 330.594 298.127 328.974 298.127C323.862 298.127 321.306 294.959 321.306 288.623V269.453H328.326C329.658 269.453 330.324 270.083 330.324 271.343V287.705C330.324 288.641 330.504 289.343 330.864 289.811C331.224 290.243 331.89 290.459 332.862 290.459C333.402 290.459 333.96 290.369 334.536 290.189C335.112 290.009 335.598 289.739 335.994 289.379V269.453ZM132.042 332.453C133.374 332.453 134.04 333.083 134.04 334.343V339.419H127.938V360.479H120.918C119.586 360.479 118.92 359.849 118.92 358.589V339.419H117.84C116.508 339.419 115.842 338.789 115.842 337.529V332.453H118.92V330.995C118.92 329.087 119.1 327.503 119.46 326.243C119.856 324.947 120.432 323.921 121.188 323.165C121.944 322.409 122.862 321.887 123.942 321.599C125.058 321.275 126.336 321.113 127.776 321.113C128.676 321.113 129.576 321.185 130.476 321.329C131.376 321.437 132.132 321.635 132.744 321.923C133.824 322.427 134.364 323.255 134.364 324.407V328.241C133.932 328.205 133.572 328.187 133.284 328.187C132.996 328.151 132.708 328.133 132.42 328.133C132.168 328.097 131.898 328.079 131.61 328.079C131.358 328.079 131.016 328.079 130.584 328.079C129.972 328.079 129.486 328.151 129.126 328.295C128.766 328.439 128.496 328.655 128.316 328.943C128.136 329.195 128.028 329.537 127.992 329.969C127.956 330.365 127.938 330.815 127.938 331.319V332.453H132.042ZM159.737 359.399C158.801 359.795 157.505 360.191 155.849 360.587C154.229 360.983 152.213 361.181 149.801 361.181C147.677 361.181 145.841 360.911 144.293 360.371C142.745 359.831 141.449 358.967 140.405 357.779C139.397 356.591 138.641 355.079 138.137 353.243C137.669 351.371 137.435 349.121 137.435 346.493C137.435 341.273 138.407 337.529 140.351 335.261C142.331 332.957 145.409 331.805 149.585 331.805C151.781 331.805 153.563 332.111 154.931 332.723C156.335 333.335 157.433 334.181 158.225 335.261C159.017 336.305 159.557 337.565 159.845 339.041C160.133 340.481 160.277 342.047 160.277 343.739C160.277 344.099 160.259 344.549 160.223 345.089C160.187 345.629 160.115 346.169 160.007 346.709C159.935 347.249 159.845 347.771 159.737 348.275C159.629 348.743 159.521 349.103 159.413 349.355H145.805C145.805 351.191 146.237 352.469 147.101 353.189C148.001 353.909 149.405 354.269 151.313 354.269C153.077 354.269 154.409 354.251 155.309 354.215C156.245 354.143 157.055 354.107 157.739 354.107C158.459 354.107 158.963 354.287 159.251 354.647C159.575 354.971 159.737 355.439 159.737 356.051V359.399ZM152.609 344.117C152.609 341.885 152.375 340.355 151.907 339.527C151.475 338.663 150.665 338.231 149.477 338.231C148.037 338.231 147.065 338.681 146.561 339.581C146.093 340.481 145.841 341.993 145.805 344.117H152.609ZM186.948 359.399C186.012 359.795 184.716 360.191 183.06 360.587C181.44 360.983 179.424 361.181 177.012 361.181C174.888 361.181 173.052 360.911 171.504 360.371C169.956 359.831 168.66 358.967 167.616 357.779C166.608 356.591 165.852 355.079 165.348 353.243C164.88 351.371 164.646 349.121 164.646 346.493C164.646 341.273 165.618 337.529 167.562 335.261C169.542 332.957 172.62 331.805 176.796 331.805C178.992 331.805 180.774 332.111 182.142 332.723C183.546 333.335 184.644 334.181 185.436 335.261C186.228 336.305 186.768 337.565 187.056 339.041C187.344 340.481 187.488 342.047 187.488 343.739C187.488 344.099 187.47 344.549 187.434 345.089C187.398 345.629 187.326 346.169 187.218 346.709C187.146 347.249 187.056 347.771 186.948 348.275C186.84 348.743 186.732 349.103 186.624 349.355H173.016C173.016 351.191 173.448 352.469 174.312 353.189C175.212 353.909 176.616 354.269 178.524 354.269C180.288 354.269 181.62 354.251 182.52 354.215C183.456 354.143 184.266 354.107 184.95 354.107C185.67 354.107 186.174 354.287 186.462 354.647C186.786 354.971 186.948 355.439 186.948 356.051V359.399ZM179.82 344.117C179.82 341.885 179.586 340.355 179.118 339.527C178.686 338.663 177.876 338.231 176.688 338.231C175.248 338.231 174.276 338.681 173.772 339.581C173.304 340.481 173.052 341.993 173.016 344.117H179.82ZM201.415 351.947C201.415 352.667 201.523 353.189 201.739 353.513C201.955 353.801 202.423 353.981 203.143 354.053C203.863 354.125 204.295 354.323 204.439 354.647C204.583 354.971 204.655 355.475 204.655 356.159V360.155C203.719 360.443 202.909 360.659 202.225 360.803C201.541 360.947 200.659 361.019 199.579 361.019C198.499 361.019 197.509 360.875 196.609 360.587C195.745 360.335 194.989 359.885 194.341 359.237C193.729 358.553 193.243 357.635 192.883 356.483C192.559 355.331 192.397 353.891 192.397 352.163V321.707H199.417C200.749 321.707 201.415 322.337 201.415 323.597V351.947ZM217.658 360.479H210.638C209.306 360.479 208.64 359.849 208.64 358.589V332.453H215.66C216.992 332.453 217.658 333.083 217.658 334.343V360.479ZM213.176 329.699C211.34 329.699 210.026 329.393 209.234 328.781C208.478 328.133 208.1 327.071 208.1 325.595C208.1 324.119 208.478 323.075 209.234 322.463C210.026 321.815 211.34 321.491 213.176 321.491C215.012 321.491 216.308 321.815 217.064 322.463C217.856 323.075 218.252 324.119 218.252 325.595C218.252 327.071 217.856 328.133 217.064 328.781C216.308 329.393 215.012 329.699 213.176 329.699ZM232.264 360.479H225.244C223.912 360.479 223.246 359.849 223.246 358.589V332.453H228.43C229.258 332.453 229.816 332.597 230.104 332.885C230.428 333.137 230.734 333.713 231.022 334.613L231.346 335.585C232.606 334.217 233.83 333.245 235.018 332.669C236.242 332.093 237.664 331.805 239.284 331.805C244.396 331.805 246.952 334.973 246.952 341.309V360.479H239.932C238.6 360.479 237.934 359.849 237.934 358.589V342.227C237.934 341.291 237.754 340.607 237.394 340.175C237.034 339.707 236.368 339.473 235.396 339.473C234.856 339.473 234.298 339.563 233.722 339.743C233.146 339.923 232.66 340.193 232.264 340.553V360.479ZM266.501 339.041C266.321 339.005 266.087 338.987 265.799 338.987C265.547 338.951 265.277 338.933 264.989 338.933C264.089 338.933 263.369 339.059 262.829 339.311C262.289 339.563 261.875 339.941 261.587 340.445C261.299 340.949 261.101 341.615 260.993 342.443C260.921 343.271 260.885 344.243 260.885 345.359C260.885 346.799 260.939 347.969 261.047 348.869C261.191 349.733 261.389 350.399 261.641 350.867C261.929 351.335 262.289 351.659 262.721 351.839C263.153 351.983 263.675 352.055 264.287 352.055C264.719 352.055 265.115 352.019 265.475 351.947C265.871 351.839 266.213 351.713 266.501 351.569V339.041ZM265.043 332.075C266.735 332.075 268.301 332.147 269.741 332.291C271.217 332.435 272.567 332.597 273.791 332.777C274.331 332.849 274.799 332.939 275.195 333.047C275.627 333.155 275.987 333.299 276.275 333.479C276.599 333.659 276.833 333.911 276.977 334.235C277.157 334.559 277.247 334.991 277.247 335.531V339.527H274.763C275.015 341.435 275.177 343.325 275.249 345.197C275.321 347.069 275.357 348.815 275.357 350.435V359.615C275.357 363.287 274.349 365.969 272.333 367.661C270.317 369.353 267.383 370.199 263.531 370.199C261.875 370.199 260.291 370.073 258.779 369.821C257.267 369.605 256.151 369.353 255.431 369.065C254.819 368.813 254.405 368.489 254.189 368.093C253.973 367.733 253.865 367.247 253.865 366.635V363.017C255.233 363.125 256.493 363.215 257.645 363.287C258.833 363.359 260.003 363.395 261.155 363.395C262.775 363.395 264.071 363.233 265.043 362.909C266.015 362.621 266.501 361.847 266.501 360.587V356.969C265.637 357.509 264.755 357.941 263.855 358.265C262.991 358.553 261.929 358.697 260.669 358.697C257.717 358.697 255.521 357.743 254.081 355.835C252.641 353.891 251.921 350.759 251.921 346.439C251.921 343.811 252.191 341.579 252.731 339.743C253.271 337.907 254.081 336.431 255.161 335.315C256.241 334.163 257.591 333.335 259.211 332.831C260.867 332.327 262.811 332.075 265.043 332.075ZM286.759 348.167C285.895 348.167 285.283 347.681 284.923 346.709C284.635 345.953 284.491 345.125 284.491 344.225C284.491 342.821 284.851 341.687 285.571 340.823C286.291 339.959 287.137 339.077 288.109 338.177C288.757 337.601 289.279 337.115 289.675 336.719C290.107 336.287 290.431 335.909 290.647 335.585C290.899 335.225 291.079 334.883 291.187 334.559C291.295 334.199 291.349 333.821 291.349 333.425C291.349 332.741 291.223 332.183 290.971 331.751C290.755 331.319 290.431 330.995 289.999 330.779C289.603 330.563 289.117 330.419 288.541 330.347C287.965 330.275 287.353 330.239 286.705 330.239C285.805 330.239 284.869 330.275 283.897 330.347C282.961 330.383 282.313 330.401 281.953 330.401C281.305 330.401 280.855 330.257 280.603 329.969C280.351 329.645 280.225 329.177 280.225 328.565V324.137C281.161 323.741 282.349 323.345 283.789 322.949C285.265 322.553 287.137 322.355 289.405 322.355C291.601 322.355 293.419 322.589 294.859 323.057C296.299 323.525 297.451 324.191 298.315 325.055C299.179 325.919 299.773 326.963 300.097 328.187C300.457 329.375 300.637 330.725 300.637 332.237C300.637 333.425 300.529 334.451 300.313 335.315C300.133 336.179 299.845 336.989 299.449 337.745C299.089 338.465 298.603 339.149 297.991 339.797C297.415 340.409 296.731 341.057 295.939 341.741C295.291 342.281 294.715 342.767 294.211 343.199C293.743 343.595 293.329 343.991 292.969 344.387C292.645 344.747 292.375 345.143 292.159 345.575C291.943 345.971 291.799 346.457 291.727 347.033L291.565 348.167H286.759ZM293.887 356.105C293.887 357.797 293.491 359.021 292.699 359.777C291.907 360.533 290.575 360.911 288.703 360.911C286.831 360.911 285.499 360.533 284.707 359.777C283.915 359.021 283.519 357.797 283.519 356.105C283.519 354.413 283.915 353.189 284.707 352.433C285.499 351.677 286.831 351.299 288.703 351.299C290.575 351.299 291.907 351.677 292.699 352.433C293.491 353.189 293.887 354.413 293.887 356.105Z" fill="white"/>
<defs>
<linearGradient id="paint0_linear_199_117" x1="212.201" y1="89.964" x2="198.065" y2="455.911" gradientUnits="userSpaceOnUse">
<stop stop-color="#83D2FF"/>
<stop offset="0.39375" stop-color="#42B8FA"/>
<stop offset="0.753125" stop-color="#9CA5FF"/>
</linearGradient>
<linearGradient id="paint1_linear_199_117" x1="215" y1="0" x2="215" y2="124" gradientUnits="userSpaceOnUse">
<stop stop-color="#AB7A4C"/>
<stop offset="1" stop-color="#72360A"/>
</linearGradient>
</defs>
</svg>
